/* XPM */
static char *_d6a196314174a05bccf96d56828a3f61AjqoxbK6ueQaaGV[] = {
/* columns rows colors chars-per-pixel */
"20 20 3 1 ",
"  c black",
". c #84357D",
"X c #A349A4",
/* pixels */
".... ......... .....",
".... ......... .....",
"..... ......... ....",
"..... ......... ....",
"                    ",
"......... ......... ",
"......... ......... ",
" ......... .........",
" ......... .........",
"                    ",
".... ......... .....",
".... ......... .....",
"..... ......... ....",
"..... ......... ....",
"                    ",
"XXXXXXXXXXXXXXXXXXXX",
"XXXXXXXXXXXXXXXXXXXX",
"XXXXXXXXXXXXXXXXXXXX",
"XXXXXXXXXXXXXXXXXXXX",
"                    "
};
