/* XPM */
static char *_8e0638abdb840adfbf846b6e2ec92d93v1RHeu3oVHJ1Jwa[] = {
/* columns rows colors chars-per-pixel */
"20 20 2 1 ",
"  c black",
". c #84357D",
/* pixels */
".... ......... .....",
".... ......... .....",
"..... ......... ....",
"..... ......... ....",
"                    ",
"......     ........ ",
"........   ........ ",
" ........ ..........",
" ........ ..........",
"                    ",
".... ......... .....",
".... ......... .....",
"..... ......... ....",
"..... ......... ....",
"                    ",
".........   ....... ",
".........  ........ ",
" ......... .........",
" ......... .........",
"                    "
};
