/* XPM */
static char *_ffd14400a1d443ffd1103079d4bf09eBlnhPF4hA7IVVTky[] = {
/* columns rows colors chars-per-pixel */
"20 20 2 1 ",
"  c black",
". c #84357D",
/* pixels */
"..... ......... ....",
"..... ......... ....",
".... ......... .....",
".... ......... .....",
"                    ",
" ......... .........",
" ......... .........",
"......... ......... ",
"......... ......... ",
"                    ",
"..... ......... ....",
"..... ......... ....",
".... ......... .....",
".... ......... .....",
"                    ",
" ......... .........",
" ......... .........",
"......... ......... ",
"......... ......... ",
"                    "
};
