/* XPM */
static char *_9ff35ee6e5c4f1ca7d261b2fed53a28IRUdwIrXRSWADYcC[] = {
/* columns rows colors chars-per-pixel */
"20 20 2 1 ",
"  c black",
". c #84357D",
/* pixels */
"..... ......... ....",
"..... ......... ....",
".... ......... .....",
".... ......... .....",
"                    ",
" ........     ......",
" ........   ........",
".......... ........ ",
".......... ........ ",
"                    ",
"..... ......... ....",
"..... ......... ....",
".... ......... .....",
".... ......... .....",
"                    ",
" .......   .........",
" ........  .........",
"......... ......... ",
"......... ......... ",
"                    "
};
